# xmcd
#
# Track frame offsets: 
#        150
#        19872
#        37331
#        58509
#        74251
#        93629
#        110060
#        125426
#        141341
#        172250
#        185203
#
# Disc length: 2676 seconds
#
# Revision: 0
# Processed by: cddbd v1.5.2PL0 Copyright (c) Steve Scherf et al.
# Submitted via: ExactAudioCopy v1.3
#
DISCID=b10a720b
DTITLE=Sven Hammond - Rapture
DYEAR=2017
DGENRE=Soul
TTITLE0=Caesar
TTITLE1=Lazarus
TTITLE2=Rapture
TTITLE3=I'll wait
TTITLE4=Greasy chops
TTITLE5=Top of the mountain
TTITLE6=A right pickle
TTITLE7=Choosy lover
TTITLE8=Raven
TTITLE9=Come down
TTITLE10=In this life
EXTD=
EXTT0=
EXTT1=
EXTT2=
EXTT3=
EXTT4=
EXTT5=
EXTT6=
EXTT7=
EXTT8=
EXTT9=
EXTT10=
PLAYORDER=
